<?xml version="1.0" encoding="UTF-8"?>
<svg xmlns="http://www.w3.org/2000/svg" width="130.706mm" height="86.142mm" viewBox="0 0 130.706 86.142">
  <path d="M 1.497,25.613 L 0.895,25.753 L 0.629,26.111 L 0.165,26.457 L 0.000,27.077 L 0.008,77.637 L 0.148,78.230 L 0.506,78.498 L 0.851,78.960 L 1.454,79.118 L 37.504,79.077 L 37.439,82.450 L 37.753,83.196 L 38.228,83.707 L 38.837,83.871 L 55.217,83.929 L 55.618,85.223 L 56.152,85.827 L 56.917,86.142 L 73.398,86.118 L 74.100,85.855 L 74.643,85.209 L 75.084,83.896 L 91.393,83.863 L 92.171,83.551 L 92.563,83.059 L 92.773,82.613 L 93.031,81.381 L 129.138,81.373 L 129.943,81.047 L 130.332,80.539 L 130.657,79.860 L 130.706,26.287 L 130.462,25.328 L 116.583,1.348 L 116.042,0.699 L 115.279,0.351 L 114.046,0.000 L 113.376,0.298 L 98.435,8.901 L 65.485,13.353 L 64.623,13.806 L 56.002,25.605 Z" fill="none" stroke="black" stroke-width="0.3"/>
  <circle cx="92.302" cy="64.240" r="2.5" fill="none" stroke="black" stroke-width="0.3"/>
  <circle cx="105.655" cy="22.507" r="2.5" fill="none" stroke="black" stroke-width="0.3"/>
  <circle cx="19.881" cy="43.983" r="2.5" fill="none" stroke="black" stroke-width="0.3"/>
  <circle cx="60.919" cy="29.290" r="2.5" fill="none" stroke="black" stroke-width="0.3"/>
  <circle cx="20.039" cy="61.041" r="2.5" fill="none" stroke="black" stroke-width="0.3"/>
  <path d="M 50.353,41.821 L 80.353,41.821 A 5,5 0 0 1 85.353,46.821 L 85.353,54.321 A 5,5 0 0 1 80.353,59.321 L 50.353,59.321 A 5,5 0 0 1 45.353,54.321 L 45.353,46.821 A 5,5 0 0 1 50.353,41.821 Z" fill="none" stroke="black" stroke-width="0.3"/>
</svg>
